<svg id="Layer_1" data-name="Layer 1" xmlns="http://www.w3.org/2000/svg" width="750" height="305.69" viewBox="0 0 750 305.69"><defs><style>.cls-1{fill:#ffb000;}.cls-2{fill:#070606;}.cls-3{fill:#fff;}.cls-4{fill:#554d4e;}</style></defs><title>shriram-life-insurance-logo</title><path class="cls-1" d="M100.78,416.23v6.83c3.45,1.47,7.6,5.12,11.76,6.59l-2.41-15.71s-7.61,1.53-9.35,2.29m50-36.24c-.19,1.6-.38,3.18-.58,4.75l-1.27,1.73a14.36,14.36,0,0,1-.73,9l18.87-1.93,5.12,40-44,6.6c1.17,2.71,1.17,5.17,0,6.37-1,1-2.94,1-5.14.53L81.91,436.23l-6.06-18.38c-2-1.45-4.63-1.71-5.17.27l-2,8-51.62,6.75c-3.8.48-5.64-5.9-1.34-7.35l28.33-6.92.15-7.33c-14.41-3.24-28.3-6.66-31-9.38L16.83,380H0v94H750V380Z" transform="translate(0 -222.15)"/><path class="cls-2" d="M343.77,271.33H332.31v38.85H287.25V271.33h-13.5v94.06h13.5V323.71h45.06v41.68h13.5V271.33Zm33,13.66H402a48.57,48.57,0,0,1,8.59.63,9.32,9.32,0,0,1,4.15,1.59,6.08,6.08,0,0,1,1.77,2.94h0a18.54,18.54,0,0,1,.71,5.53v10.51a18.31,18.31,0,0,1-.72,5.45,6.71,6.71,0,0,1-1.84,3h0a9.56,9.56,0,0,1-4.19,1.65,47,47,0,0,1-8.43.64H376.79Zm-11.45-13.66h-2v94.06h13.49v-35H405a22,22,0,0,1,6.46.78,6.48,6.48,0,0,1,3.29,1.9,9.3,9.3,0,0,1,1.75,4.09,37.52,37.52,0,0,1,.68,7.67v20.59H431.1V341.72a41.72,41.72,0,0,0-.64-7.82,17.48,17.48,0,0,0-2.14-5.83,12.52,12.52,0,0,0-4-4l-.52-.33.15-.1a13.16,13.16,0,0,0,4.06-3.87,16.87,16.87,0,0,0,2.35-5.45,29.38,29.38,0,0,0,.73-6.79V293.93a32.36,32.36,0,0,0-1.46-10.43,15.72,15.72,0,0,0-4.69-7.19,20.24,20.24,0,0,0-8.51-3.8,58.88,58.88,0,0,0-12.61-1.18Zm97.21,0H451v94.06h13.59V271.33Zm33,13.66h25.16a48.19,48.19,0,0,1,8.56.63,9.41,9.41,0,0,1,4.19,1.59,6.25,6.25,0,0,1,1.75,2.94h0a18.51,18.51,0,0,1,.69,5.53v10.51a17.36,17.36,0,0,1-.73,5.45,6.51,6.51,0,0,1-1.82,3h0a9.71,9.71,0,0,1-4.22,1.65,46.63,46.63,0,0,1-8.41.64H495.57ZM484.1,271.33h-2v94.06h13.5v-35h28.19a22.08,22.08,0,0,1,6.46.78,6.64,6.64,0,0,1,3.31,1.9,9.8,9.8,0,0,1,1.73,4.09,36.91,36.91,0,0,1,.67,7.67v20.59h14V341.72a41.66,41.66,0,0,0-.65-7.82,17.26,17.26,0,0,0-2.14-5.83,12.48,12.48,0,0,0-4-4l-.53-.33.17-.1a13.5,13.5,0,0,0,4.06-3.87,16.62,16.62,0,0,0,2.32-5.45,28.28,28.28,0,0,0,.75-6.79V293.93a32.05,32.05,0,0,0-1.48-10.43,15.38,15.38,0,0,0-4.67-7.19,20.21,20.21,0,0,0-8.53-3.8,58.58,58.58,0,0,0-12.58-1.18ZM602,285h.15l15.58,44.4H586.55Zm7.83-13.66h-17l-.47,1.38-31.54,90-1,2.7H574l.49-1.37L582,342.39h40.27L629.87,364l.48,1.36h14.1l-1-2.73-31.69-90-.5-1.38Zm138.13,0H730.9l-.49,1.36-27,74.88-27.3-74.88-.5-1.36h-19v94.06h13.5V293.47l25.49,70.59.49,1.33h14.5l.47-1.33,25.5-70.59v71.92H750V271.33Zm-528-1.08c-3.88,0-7.25.08-10.07.26a45.22,45.22,0,0,0-6.74.78,21.49,21.49,0,0,0-4.57,1.5,14.27,14.27,0,0,0-3.6,2.42h0a17.93,17.93,0,0,0-3.21,4A20.32,20.32,0,0,0,189.6,284a31.41,31.41,0,0,0-1.2,5.91,60.48,60.48,0,0,0-.4,7.32,45.1,45.1,0,0,0,1.21,11.16A19.41,19.41,0,0,0,193,316.3a17.6,17.6,0,0,0,7.17,4.77,39.22,39.22,0,0,0,10.53,2.15l26.31,2.18a15,15,0,0,1,4.13.86,4.1,4.1,0,0,1,2,1.38,8.56,8.56,0,0,1,1.06,3.5,55.26,55.26,0,0,1,.44,7.85c0,1.64,0,3.1-.11,4.31a27,27,0,0,1-.36,3.19,14.59,14.59,0,0,1-.53,2.09l-.59,1v0a6.54,6.54,0,0,1-1.9,1.47,11.74,11.74,0,0,1-3,1.11,25.84,25.84,0,0,1-4.52.7c-1.82.16-3.91.24-6.29.24-4.62,0-8.3,0-11.06-.09s-5-.24-6.39-.4a22.28,22.28,0,0,1-3.46-.63,9.24,9.24,0,0,1-2.12-.81h0a5.56,5.56,0,0,1-1.63-1.55,9.3,9.3,0,0,1-1.22-2.65,25.1,25.1,0,0,1-.8-4.46c-.17-1.88-.24-4.14-.24-6.8V332H186.8v6.47a59.29,59.29,0,0,0,.39,7.21,34.82,34.82,0,0,0,1.23,6,23.21,23.21,0,0,0,2.13,4.89,16.9,16.9,0,0,0,3.18,3.87,18.42,18.42,0,0,0,4.07,3,21.15,21.15,0,0,0,4.94,1.92,43.82,43.82,0,0,0,7,1c2.85.22,6.24.33,10.21.33h4.25c4.65,0,8.62-.12,11.87-.38a43.65,43.65,0,0,0,7.82-1.18,21.13,21.13,0,0,0,5.21-2.27,17,17,0,0,0,4.12-3.56,16.74,16.74,0,0,0,2.42-3.75,21.73,21.73,0,0,0,1.6-4.45v0a35.87,35.87,0,0,0,.87-5.84c.2-2.28.3-4.9.3-7.89a46.42,46.42,0,0,0-1.13-10.85,19.09,19.09,0,0,0-3.6-7.69,16.35,16.35,0,0,0-6.61-4.72,32,32,0,0,0-9.56-2.15h0l-26.81-2.37a17.27,17.27,0,0,1-4.7-1,5.58,5.58,0,0,1-2.36-1.68,8.16,8.16,0,0,1-1.28-3.3,31.21,31.21,0,0,1-.52-6.12,29.33,29.33,0,0,1,.78-7.32,7.94,7.94,0,0,1,1.95-3.76c.86-.79,2.44-1.38,4.83-1.84a57.21,57.21,0,0,1,10.34-.74q6.47,0,10.6.18c2.8.13,4.89.3,6.35.52a18.77,18.77,0,0,1,3.43.92,5.62,5.62,0,0,1,1.75,1.11l.67,1.05a9.07,9.07,0,0,1,.56,1.87,18.09,18.09,0,0,1,.36,2.94c.11,1.18.16,2.59.16,4.2v4.31H257l.16-1.89v-.14a16.72,16.72,0,0,0,.11-1.68v-.91c0-.71,0-1.58,0-1.79a50.65,50.65,0,0,0-.32-5.72,28.55,28.55,0,0,0-.95-4.85h0a18.06,18.06,0,0,0-1.69-4,13,13,0,0,0-2.55-3.12,19.76,19.76,0,0,0-4.49-3.06,23.47,23.47,0,0,0-5.35-2,49.7,49.7,0,0,0-7.64-1.06q-4.72-.33-11.33-.33Z" transform="translate(0 -222.15)"/><path class="cls-3" d="M111.19,372.89,108,385.11l-2.33,13.82,5.24,8.59,3.2,28.8,5.82,2.33L169.68,432l-4.22-36.67s-18.25,2.42-18.33,1.46-2.18-1.61-2.18-1.61l2.32-5.66,2.19-11.36-12.08-8.43Z" transform="translate(0 -222.15)"/><path class="cls-2" d="M100.78,423.06v-6.83c1.74-.76,9.35-2.29,9.35-2.29l2.41,15.71c-4.16-1.47-8.31-5.11-11.76-6.59M116,433.35l-3.93-33.09,9.27-.47,3.9,34.07a8.41,8.41,0,0,1-3.75.85A13.15,13.15,0,0,1,116,433.35Zm9.24-33.85,38.7-3.16,3.64,31.74-37.91,5.78Zm-5.33-13a11.79,11.79,0,0,1,4.66-10.78,5.42,5.42,0,0,1,6.55.24,6.15,6.15,0,0,1,4.93,1.74c1.48-.28,2.94.48,4.38,1.73,3.94,1.48,6.61,1.48,5.91,6.85a8.47,8.47,0,0,1-3.47,4.69c-2.19,2.15-4.88,2.39-5.34-.3l-4.46,3.16c-4.15.52-3-3.16-3.18-6.56-1-4.69-3.61-5.16-4.65-2.71-.28,2.69-1.78,4-3.13,4A2.33,2.33,0,0,1,119.92,386.51ZM24.13,222.15c-3.63.08-4.31,5.76-4,12.16-2.74.51-5.67.9-7.1,4.67-2.72-1-6.39,1-7.2,3.14-2.94-.71-6.22,1.41-5.75,4.53.85,5.77,2.2,8.86,5.85,11-1.49,3.41.18,10.55,4.32,13.68.38.29-1.64,1.55-2.11,2.05l-2.2,2L14.73,309c1.95,9.83,3.88,22.57,5.84,36.51a38.92,38.92,0,0,1,0,11.76l-7.36,44.64c2.71,2.72,16.6,6.14,31,9.38l-.16,7.33-28.33,6.92c-4.3,1.45-2.46,7.83,1.34,7.35l51.62-6.75,2-8c.54-2,3.17-1.72,5.17-.27l6.06,18.38,41.14,10.82c2.2.43,4.15.43,5.14-.53,1.17-1.2,1.17-3.66,0-6.37l44-6.6-5.12-40-18.87,1.92a14.32,14.32,0,0,0,.73-9l1.27-1.73c1.71-13.47,3.19-28.69,3.87-42.62,1.49-9.1-3.64-12.79-8.31-14.23L109.81,311.2c-.75-1.11-.24-4.81,2.43-7.44,2.18-2.75,6.2-15.55-.86-18.3,5-14.85,4.48-28.15-8.42-25.22-3.41-7.36-16.4-11.53-25.62-10.81-27.29,2.17-32.29,22.29-27.4,33.05.51,1.5.58,5-.17,5.73-1.71,1.43-2.56,2.41-4.26,2.9-4.38-6.87-7.34-17.17-10.49-23.53-.26-1.92.48-6.24.94-8.66a12.17,12.17,0,0,0-.46-7.36c-1.26-6.37-3-12.5-4.91-18.88-1.69-6.06-3.67-10.53-6.38-10.53Z" transform="translate(0 -222.15)"/><path class="cls-3" d="M59.75,277.91a21.16,21.16,0,0,1,2.46-4.86c3.36-2.75,7.31-.73,7.87-.43,4.1,3,6.09,6.08,6.8,9.82.28,3.23-.49,7.43-.77,11,1.28,3.49,4.24,3.49,7.49,1.48,1-.48,2.27.23,1.5,2l-2.72,2.71c1,3,4,3.74,11.47-1.24l1.24-2.24c.72-.74.47-1.24,1.26-1.24,1.2-.48,2.45.74,3,2-.55,1.21-1.54,1.67-3,2a31.9,31.9,0,0,0-3.54,4.72c-2.2,3-4,9.46-13.17,8.93-9.22,0-11-7.45-13.69-9.93l-4.48-4.23c-.52-1.47,1.25-3,2.19-1.47a20,20,0,0,0,8.27,4.72,4.57,4.57,0,0,0,3.71-1.25,2.24,2.24,0,0,0-.48-2.46c-1.25-.51-1.5-1.5-1.5-3,.25-3.48.25-6,.5-9.73,0-3.76-1.74-6.24-4.49-8.46-3.72-1.24-5.73,0-7,2.49a2.23,2.23,0,0,1-1.53.72,1.56,1.56,0,0,1-1.44-2m-2.5-7.28-.06.06-.4.39-.73.9-.34.5-.12.22-.19.41h0a13.23,13.23,0,0,0-1,3.86l1.24,15.89c.26,5.5-1,9-1.5,13.21,0,4.74,1.5,9.48,4.75,11.26,3.52,2.22,9.69,3.7,14.7,5.17a15.4,15.4,0,0,0,7.22.47c7.2-1.72,14.45-3.2,21.66-4.43,1.51-1.21,2.47-4,2.29-6.71-.78-13.93,1.46-21.19,1.18-29.17.28-3.48-1.46-6-3.47-6l-7-1.24a9.69,9.69,0,0,0-5,2c-2.53,1.89-4.74,2.92-5,1.42.46-4.25,8.74-8.35,17.13-5.8-1.3-3.32-2.65-4.62-4.68-5.55-3,.15-6.36.32-10.84.67-1.75.15-11.14.49-15.1-.49l-.63-.08v-.05a33.14,33.14,0,0,0-3.92-.25C62.06,267.36,59,269.08,57.25,270.63Z" transform="translate(0 -222.15)"/><path class="cls-3" d="M22.49,229.4a99.87,99.87,0,0,0,1.74,11.85l4.65,1.5A57.13,57.13,0,0,0,25.69,227a3.69,3.69,0,0,0-1.62-.49c-1.09,0-1.58,1-1.58,2.91" transform="translate(0 -222.15)"/><path class="cls-3" d="M16.08,241.31c-.73,3.19,0,6.87,3,10.82,1.49,1,2.18.41,2.64-1.27-2.44-4.68-1-9.76-1.45-12.49a6.59,6.59,0,0,0-.75-.05c-1.71,0-2.74.79-3.41,3" transform="translate(0 -222.15)"/><path class="cls-3" d="M8.52,245.22c-.23,7.12,2.94,10.32,6.63,6.9a22.71,22.71,0,0,1-2.74-9.86A4.41,4.41,0,0,0,11,242c-1.59,0-2.2,1.35-2.43,3.26" transform="translate(0 -222.15)"/><path class="cls-3" d="M2.64,247.91c-.21,5.18,2.66,9.06,4.9,6.63a23.41,23.41,0,0,1-2.45-8.63,2.7,2.7,0,0,0-1-.22c-.95,0-1.29.87-1.49,2.22" transform="translate(0 -222.15)"/><path class="cls-3" d="M24.79,244.92c-.3,2.2,1.24,4.49,3.22,6.72-2.72.77-4.52,1.77-4.72,3.77-.26,3,.2,3.77,3.25,6a1.81,1.81,0,0,1-1,2.73c-.73-1.24-2.49-2.51-3.47-3.73a7.36,7.36,0,0,1-2.77-4.54c-.75-2-1.48-3-3.2-1.48-1.08.72-4.25.72-5.8,1.24-1.21.5-2,1.49-1.73,3.54,0,3.73.52,6.73,4.51,8.72a5.89,5.89,0,0,0,6.75-2c5.22,3.27,12.73.53,14.2-8.26a8.51,8.51,0,0,0-.51-5.52c-2-5.26-3.21-7.21-5-8.26a2.79,2.79,0,0,0-1.76-.68,1.91,1.91,0,0,0-2,1.73" transform="translate(0 -222.15)"/><path class="cls-2" d="M91.53,283.08a3.6,3.6,0,0,0,1,7.08c4.11-.1,4.27-7.34.36-7.34a4.16,4.16,0,0,0-1.38.26" transform="translate(0 -222.15)"/><path class="cls-2" d="M63.29,290.16c2.87,3.14,7.1,1.15,7.06-2a3.67,3.67,0,0,0-3.78-3.47c-2,0-3.93,1.59-3.28,5.49" transform="translate(0 -222.15)"/><path class="cls-3" d="M86,325.58c1.57,4.49,5.34,9.5,9.59,11.31,4-3.38,7-11.55,9.58-16.39-6.79,1.29-12.4,3.77-19.17,5.08" transform="translate(0 -222.15)"/><path class="cls-3" d="M66.81,333.66c3.14-1.9,5.22-4.89,7.06-8.09-4.84-.88-9.07-2.35-13.61-3.54,1.7,4.35,4.91,7.21,6.55,11.63" transform="translate(0 -222.15)"/><path class="cls-3" d="M69,303.11c7.72,12.11,16.67,9.42,21.83-.31-10.5,4.1-10.53,3.67-21.83.31" transform="translate(0 -222.15)"/><path class="cls-2" d="M328.93,413.42v34.76m0,0h5.14V413.42h-5.14Zm217.34-34.76v20.23c0,3.59-.84,6.21-2.5,7.86s-4.3,2.47-7.9,2.47c-3.13,0-5.23-.56-6.31-1.71s-1.62-3.53-1.62-7.13V413.42H522.8v22.81q0,6.9,2.74,9.67c1.84,1.83,5,2.75,9.55,2.75a18,18,0,0,0,7.41-1.27,7.74,7.74,0,0,0,4-3.92v4.72h5V413.42ZM370.94,426.07c0-3.26.58-5.47,1.71-6.64s3.44-1.75,6.88-1.75h2.41c3.45,0,5.75.58,6.93,1.75s1.74,3.38,1.74,6.64v1.35H370.94Zm8.59-13.13q-7.77,0-10.85,3.05t-3.08,10.7v8.25q0,7.63,3.1,10.67c2.06,2,5.7,3,10.89,3H382c4.68,0,8.09-.83,10.26-2.51s3.38-4.39,3.64-8.17h-5.38c-.19,2.23-.9,3.79-2.11,4.68S385,444,381.94,444h-2.41c-3.49,0-5.8-.6-6.94-1.83s-1.72-3.62-1.72-7.21c0-.77,0-1.37,0-1.8l.05-1.16,25,0v-5.26c0-5.11-1-8.67-3.12-10.7s-5.71-3.05-10.9-3.05Zm74.65,1.28a8,8,0,0,0-4,4v-4.76H445.2v34.76h5.14V428c0-3.6.85-6.21,2.53-7.88s4.34-2.48,8-2.48c3.09,0,5.16.57,6.23,1.71s1.59,3.54,1.59,7.16v21.69h5.15V425.4c0-4.62-.92-7.85-2.73-9.69s-5-2.77-9.58-2.77A17.8,17.8,0,0,0,454.18,414.22Zm31.69.78q-3,2-2.95,7.82a13.51,13.51,0,0,0,.85,5.41,6.23,6.23,0,0,0,2.82,3c.88.5,3.65.83,8.32.95,2.13.07,3.82.14,5.08.2q5.07.27,6.35,1.42c.84.75,1.27,2.27,1.27,4.54s-.52,3.9-1.56,4.72-3.78,1.23-8.25,1.23c-4,0-6.63-.41-8-1.2s-2-2.3-2-4.44v-.79h-5.21v.93c0,3.75,1,6.33,3,7.76s6.08,2.13,12.24,2.13a61.74,61.74,0,0,0,7.09-.31,9,9,0,0,0,3.65-1,8.59,8.59,0,0,0,3.44-3.51,13.62,13.62,0,0,0,1-5.81,13.47,13.47,0,0,0-1-5.76,6.55,6.55,0,0,0-3.29-3,12.19,12.19,0,0,0-3.54-.77c-1.66-.19-3.93-.34-6.84-.45-.49,0-1.18,0-2.08-.07-3.55-.09-5.85-.4-6.88-1a2.34,2.34,0,0,1-1.06-1.25,9.38,9.38,0,0,1-.3-2.86c0-2.24.54-3.72,1.59-4.42s3.5-1.06,7.35-1.06,6.6.3,7.94.88a3.19,3.19,0,0,1,2,3.19v.33h5.15c0-3.26-.93-5.55-2.76-6.84s-5.34-2-10.51-2Q488.8,412.94,485.87,415Zm84.34-.79a7.46,7.46,0,0,0-3.4,4v-4.76h-5v34.76H567V428c0-3.67.63-6.32,1.91-7.94s3.34-2.42,6.19-2.42c2.44,0,4.1.46,5,1.42s1.31,2.83,1.31,5.61v1h5.21v-.27q0-7-2.3-9.71c-1.52-1.83-4.18-2.75-8-2.75A12.73,12.73,0,0,0,570.21,414.21Zm28.6,28.26c-1.21-.91-1.8-2.72-1.8-5.45,0-2.4.55-4,1.69-4.88s3.38-1.27,6.75-1.27c3.67,0,6.35.38,8,1.16a3.8,3.8,0,0,1,2.53,3.64v3.65c0,1.45-.86,2.58-2.57,3.36a18.55,18.55,0,0,1-7.42,1.17C602.39,443.85,600,443.39,598.81,442.47Zm-3-27.62q-2.89,1.89-2.89,6.36v.8H598c0-1.86.61-3.12,1.65-3.79s3.21-1,6.41-1q6.64,0,8.29,1.25T616,424v6a6.83,6.83,0,0,0-3.74-2.6,26,26,0,0,0-7.22-.78,39.6,39.6,0,0,0-7,.46,7.74,7.74,0,0,0-3.7,1.5,6.86,6.86,0,0,0-2.12,3.33,20.24,20.24,0,0,0-.65,5.75c0,4.24.93,7.12,2.77,8.67s5.5,2.34,10.94,2.34a20.82,20.82,0,0,0,7.18-1,6.88,6.88,0,0,0,3.79-3.15l.19,3.66h4.68V423.84a19.78,19.78,0,0,0-.63-6,6.42,6.42,0,0,0-2.14-2.94,9.73,9.73,0,0,0-4.27-1.49,57.48,57.48,0,0,0-8.37-.47C601,412.94,597.69,413.58,595.76,414.85Zm44.47-.63a7.94,7.94,0,0,0-4,4v-4.76h-4.94v34.76h5.14V428c0-3.6.85-6.21,2.52-7.88s4.34-2.48,8-2.48c3.08,0,5.15.57,6.23,1.71s1.59,3.54,1.59,7.16v21.69h5.15V425.4q0-6.93-2.75-9.69t-9.56-2.77A17.85,17.85,0,0,0,640.23,414.22Zm42.27-1.28c-5.17,0-8.79,1-10.83,3.05s-3.1,5.61-3.1,10.7v8.25q0,7.63,3.11,10.67t10.9,3H685c5,0,8.58-1,10.74-2.93s3.22-5.19,3.22-9.72v-.67h-5.35v.6c0,3.06-.59,5.17-1.79,6.32s-3.5,1.73-6.88,1.73H682.5q-5.28,0-6.94-1.78t-1.64-8.42v-5.93q0-6.6,1.63-8.39c1.09-1.18,3.4-1.78,7-1.78h2.42c3.34,0,5.6.53,6.76,1.59s1.8,3,1.91,5.81l5.35,0q-.13-6.45-3.4-9.27t-10.62-2.84Zm29.4,13.13q0-4.89,1.71-6.64t6.87-1.75h2.42c3.44,0,5.76.58,6.92,1.75s1.75,3.38,1.75,6.64v1.35H711.9Zm8.58-13.13q-7.76,0-10.84,3.05t-3.09,10.7v8.25q0,7.63,3.11,10.67t10.89,3H723c4.68,0,8.09-.83,10.26-2.51s3.38-4.39,3.65-8.17h-5.39c-.19,2.23-.9,3.79-2.1,4.68S726,444,722.9,444h-2.42c-3.48,0-5.79-.6-6.93-1.83s-1.72-3.62-1.72-7.21c0-.77,0-1.37,0-1.8l0-1.16,25,0v-5.26q0-7.67-3.11-10.7c-2.07-2-5.72-3.05-10.91-3.05ZM289.39,399v49.17H322.6V443H294.73V399Zm39.54,5.82h5.14V399h-5.14Zm19-3.11c-1.54,1.81-2.32,4.93-2.32,9.36,0,.62,0,1.09,0,1.43v.91h-4.87v4.4h4.87v30.36h5.14V417.82h10.95v-4.4H350.74v-2.35c0-3.22.44-5.23,1.32-6.05s2.64-1.2,5.3-1.2c.59,0,1.63,0,3.15.06l1.18.07v-4.67c-.94-.09-1.89-.15-2.84-.19S357,399,356,399C352.13,399,349.44,399.92,347.89,401.72Zm80.79,46.46h5.48V399h-5.48Z" transform="translate(0 -222.15)"/><path class="cls-4" d="M21.55,501.84l-8.64,12-8.64-12H.92l10.62,14.3V527.5h2.79V516.1l10.58-14.26Zm60.77,0v16.84a15.88,15.88,0,0,1-.26,3.48,3.31,3.31,0,0,1-.88,1.57,4,4,0,0,1-1.67.87,14.83,14.83,0,0,1-3.32.25H73.5a14.62,14.62,0,0,1-3.3-.25,3.86,3.86,0,0,1-1.65-.87,3.24,3.24,0,0,1-.92-1.58,15.27,15.27,0,0,1-.26-3.47V501.84H64.5V519c0,3.26.66,5.56,1.94,6.84s3.58,1.94,6.85,1.94h3.1q4.92,0,6.85-1.94c1.29-1.28,1.94-3.58,1.94-6.84V501.84Zm17.61,2.72h8.18q3.27,0,4.23.78a3.52,3.52,0,0,1,1,2.86v3a3.47,3.47,0,0,1-1,2.83c-.66.53-2.07.8-4.2.8H99.93Zm-2.82-2.72V527.5h2.82v-10H109c1.67,0,2.81.32,3.39,1s.87,1.89.87,3.73v5.29h3v-6.17a6.8,6.8,0,0,0-.74-3.59,4,4,0,0,0-2.57-1.56,3.71,3.71,0,0,0,2.49-1.43,5.41,5.41,0,0,0,.82-3.18V507.7c0-2.19-.54-3.72-1.63-4.57s-3.07-1.29-6-1.29Zm53.38,2.72h7.94c1.95,0,3.2.24,3.78.69a3.12,3.12,0,0,1,.87,2.56v3.76a3.13,3.13,0,0,1-.89,2.56c-.6.46-1.85.7-3.76.7h-7.94Zm-2.82-2.72V527.5h2.82v-10h8c2.91,0,4.89-.42,6-1.29s1.61-2.42,1.61-4.68V507.7c0-2.19-.54-3.72-1.63-4.57s-3.07-1.29-5.95-1.29Zm34.15,2.73h.91l5.12,13.82H176.73Zm-1.88-2.73-9.48,25.66h2.93l2.39-6.57h13l2.44,6.57h2.94l-9.53-25.66Zm26.43,2.72h8.18c2.19,0,3.6.26,4.24.78a3.56,3.56,0,0,1,1,2.86v3a3.41,3.41,0,0,1-1,2.83c-.65.53-2.05.8-4.19.8h-8.18Zm-2.82-2.72V527.5h2.82v-10h9.09c1.69,0,2.83.32,3.42,1s.87,1.89.87,3.73v5.29h3v-6.17a6.69,6.69,0,0,0-.75-3.59,4,4,0,0,0-2.57-1.56,3.73,3.73,0,0,0,2.5-1.43,5.41,5.41,0,0,0,.82-3.18V507.7c0-2.19-.54-3.72-1.63-4.57s-3.07-1.29-6-1.29Zm26.51,0v2.72h8.15V527.5h2.86V504.56h8.19v-2.72Zm46.15,0v22.9l-13.9-22.9h-4.37V527.5h2.82V504.57l13.89,22.93H279V501.84Zm15,0V527.5h18v-2.68H294.05v-9.25h14.74V513H294.05v-8.4h15.17v-2.72Zm31.33,2.72h8.19q3.28,0,4.23.78a3.52,3.52,0,0,1,.95,2.86v3a3.43,3.43,0,0,1-1,2.83c-.67.53-2.07.8-4.2.8h-8.19Zm-2.82-2.72V527.5h2.82v-10h9.1c1.69,0,2.83.32,3.41,1s.86,1.89.86,3.73v5.29h3v-6.17a6.7,6.7,0,0,0-.74-3.59,4,4,0,0,0-2.57-1.56,3.73,3.73,0,0,0,2.5-1.43,5.48,5.48,0,0,0,.81-3.18V507.7c0-2.19-.54-3.72-1.62-4.57s-3.07-1.29-6-1.29Zm50.57,0V527.5h2.83V515.57h12.79V513H373.14v-8.4h13.19v-2.72Zm61.94,2.72h8.19c2.18,0,3.6.26,4.23.78a3.52,3.52,0,0,1,1,2.86v3a3.47,3.47,0,0,1-1,2.83c-.66.53-2.07.8-4.2.8h-8.19Zm-2.81-2.72V527.5h2.81v-10h9.1c1.69,0,2.82.32,3.41,1s.87,1.89.87,3.73v5.29h3v-6.17a6.69,6.69,0,0,0-.75-3.59,4,4,0,0,0-2.56-1.56,3.68,3.68,0,0,0,2.49-1.43,5.41,5.41,0,0,0,.82-3.18V507.7c0-2.19-.54-3.72-1.63-4.57s-3.06-1.29-5.95-1.29Zm53.38,2.72h7.95c1.93,0,3.2.24,3.78.69a3.12,3.12,0,0,1,.87,2.56v3.76a3.13,3.13,0,0,1-.9,2.56c-.6.46-1.84.7-3.75.7h-7.95ZM480,501.84V527.5h2.82v-10h8c2.9,0,4.89-.42,6-1.29s1.61-2.42,1.61-4.68V507.7c0-2.19-.54-3.72-1.63-4.57s-3.07-1.29-5.95-1.29Zm31.88,2.72h8.19c2.18,0,3.6.26,4.23.78a3.52,3.52,0,0,1,1,2.86v3a3.41,3.41,0,0,1-1,2.83c-.66.53-2.06.8-4.19.8h-8.19Zm-2.82-2.72V527.5h2.82v-10H521c1.69,0,2.82.32,3.41,1s.87,1.89.87,3.73v5.29h3v-6.17a6.69,6.69,0,0,0-.75-3.59,4,4,0,0,0-2.56-1.56,3.75,3.75,0,0,0,2.5-1.43,5.48,5.48,0,0,0,.81-3.18V507.7c0-2.19-.54-3.72-1.63-4.57s-3.07-1.29-6-1.29Zm96.82,2.72h7.94c1.94,0,3.2.24,3.77.69a3.09,3.09,0,0,1,.88,2.56v3.76a3.1,3.1,0,0,1-.9,2.56c-.6.46-1.85.7-3.75.7h-7.94Zm-2.83-2.72V527.5h2.83v-10h8c2.9,0,4.89-.42,6-1.29s1.62-2.42,1.62-4.68V507.7c0-2.19-.54-3.72-1.64-4.57s-3.06-1.29-5.95-1.29Zm29.07,0V527.5h18v-2.68H634.93v-9.25h14.75V513H634.93v-8.4h15.18v-2.72Zm31.32,2.72h8.19q3.27,0,4.23.78a3.52,3.52,0,0,1,.95,2.86v3a3.43,3.43,0,0,1-1,2.83c-.66.53-2.07.8-4.2.8h-8.19Zm-2.82-2.72V527.5h2.82v-10h9.1c1.69,0,2.83.32,3.41,1s.86,1.89.86,3.73v5.29h3v-6.17a6.8,6.8,0,0,0-.74-3.59,4,4,0,0,0-2.57-1.56,3.68,3.68,0,0,0,2.49-1.43,5.41,5.41,0,0,0,.82-3.18V507.7c0-2.19-.54-3.72-1.62-4.57s-3.08-1.29-5.95-1.29Zm30.63,25.66h2.86V501.84h-2.86Zm11.53-25.66v2.72h8.15V527.5h2.86V504.56H722v-2.72Zm43.88,0-8.63,12-8.65-12H726l10.62,14.3V527.5h2.8V516.1L750,501.88v0Zm-708.73,23a4.69,4.69,0,0,1-1.94-1,3.5,3.5,0,0,1-1.06-1.74,16.16,16.16,0,0,1-.31-3.79v-7.26a16.42,16.42,0,0,1,.31-3.81A3.52,3.52,0,0,1,36,505.49a4.57,4.57,0,0,1,1.94-1,16.06,16.06,0,0,1,3.81-.3h1.59a17.93,17.93,0,0,1,3.85.28,4.85,4.85,0,0,1,1.91,1,3.44,3.44,0,0,1,1.06,1.77,16.15,16.15,0,0,1,.32,3.81v7.29a16.15,16.15,0,0,1-.31,3.83,3.34,3.34,0,0,1-1,1.7,4.65,4.65,0,0,1-1.93,1,17,17,0,0,1-3.85.3H41.74A16.63,16.63,0,0,1,37.93,524.83Zm3-23.3c-3.46,0-5.87.65-7.21,1.94s-2,3.58-2,6.86V519c0,3.29.68,5.57,2,6.86s3.75,1.93,7.21,1.93h3.24q5.16,0,7.2-1.93c1.36-1.29,2-3.57,2-6.86v-8.69c0-3.31-.67-5.62-2-6.89s-3.75-1.91-7.24-1.91Zm361.67,23.3a4.82,4.82,0,0,1-1.94-1,3.57,3.57,0,0,1-1.06-1.74,16.16,16.16,0,0,1-.31-3.79v-7.26a16.42,16.42,0,0,1,.31-3.81,3.59,3.59,0,0,1,1.06-1.76,4.69,4.69,0,0,1,1.94-1,16.06,16.06,0,0,1,3.81-.3H408a17.87,17.87,0,0,1,3.85.28,4.85,4.85,0,0,1,1.91,1,3.5,3.5,0,0,1,1.06,1.77,15.62,15.62,0,0,1,.32,3.81v7.29a15.62,15.62,0,0,1-.31,3.83,3.26,3.26,0,0,1-1,1.7,4.69,4.69,0,0,1-1.94,1,17.1,17.1,0,0,1-3.85.3h-1.59A16.63,16.63,0,0,1,402.61,524.83Zm3-23.3q-5.19,0-7.21,1.94t-2,6.86V519c0,3.29.68,5.57,2,6.86s3.75,1.93,7.21,1.93h3.24q5.16,0,7.2-1.93c1.36-1.29,2.05-3.57,2.05-6.86v-8.69c0-3.31-.67-5.62-2-6.89s-3.75-1.91-7.24-1.91Zm139.49,23.3a4.77,4.77,0,0,1-1.93-1,3.36,3.36,0,0,1-1.06-1.74,15.62,15.62,0,0,1-.31-3.79v-7.26a15.87,15.87,0,0,1,.31-3.81,3.38,3.38,0,0,1,1.06-1.76,4.65,4.65,0,0,1,1.93-1,16.22,16.22,0,0,1,3.82-.3h1.6a17.72,17.72,0,0,1,3.83.28,4.85,4.85,0,0,1,1.91,1,3.45,3.45,0,0,1,1.07,1.77,16.3,16.3,0,0,1,.31,3.81v7.29a15.62,15.62,0,0,1-.31,3.83,3.31,3.31,0,0,1-1,1.7,4.79,4.79,0,0,1-1.95,1,16.89,16.89,0,0,1-3.83.3h-1.6A16.79,16.79,0,0,1,545.11,524.83Zm3-23.3c-3.46,0-5.86.65-7.22,1.94s-2,3.58-2,6.86V519c0,3.29.67,5.57,2,6.86s3.76,1.93,7.22,1.93h3.23c3.45,0,5.85-.64,7.22-1.93s2-3.57,2-6.86v-8.69c0-3.31-.67-5.62-2-6.89s-3.75-1.91-7.25-1.91Zm32.46,0a28.82,28.82,0,0,0-4.94.28,4.51,4.51,0,0,0-2.17,1A5.13,5.13,0,0,0,572,505a12.16,12.16,0,0,0-.44,3.6c0,2.37.45,4.05,1.36,5.06s2.54,1.59,4.91,1.78l7.91.62a3.11,3.11,0,0,1,2.28.86c.38.49.58,1.69.58,3.59a14.29,14.29,0,0,1-.15,2.24A2.38,2.38,0,0,1,588,524a3.65,3.65,0,0,1-1.8.93,16.39,16.39,0,0,1-3.4.28c-2.67,0-4.46,0-5.32-.15a5.08,5.08,0,0,1-1.91-.49,2.51,2.51,0,0,1-1.13-1.53,12.07,12.07,0,0,1-.35-3.38v-.48h-2.85v1.26a11.73,11.73,0,0,0,.46,3.59,4.64,4.64,0,0,0,1.41,2.23,5.51,5.51,0,0,0,2.46,1.27,24,24,0,0,0,5,.36h1.27a26,26,0,0,0,5.75-.43,4.68,4.68,0,0,0,3.58-3.58,16.11,16.11,0,0,0,.33-3.78q0-3.45-1.27-4.92c-.85-1-2.33-1.57-4.44-1.75l-8.06-.67a3.59,3.59,0,0,1-2.57-1,5.12,5.12,0,0,1-.67-3.05c0-1.78.34-3,1-3.58s2.34-.89,5-.89a39,39,0,0,1,5.21.22,3.49,3.49,0,0,1,1.9.74,2.21,2.21,0,0,1,.52,1.11,10.71,10.71,0,0,1,.17,2.16v.65h2.86l0-.48v-.76a10.41,10.41,0,0,0-.34-2.86,3.71,3.71,0,0,0-1.1-1.77,6.38,6.38,0,0,0-2.7-1.31,27.92,27.92,0,0,0-5.56-.38Z" transform="translate(0 -222.15)"/></svg>